<?xml version="1.0" encoding="UTF-8" standalone="no"?>
<!-- Created with Inkscape (http://www.inkscape.org/) -->

<svg
   xmlns:dc="http://purl.org/dc/elements/1.1/"
   xmlns:cc="http://creativecommons.org/ns#"
   xmlns:rdf="http://www.w3.org/1999/02/22-rdf-syntax-ns#"
   xmlns:svg="http://www.w3.org/2000/svg"
   xmlns="http://www.w3.org/2000/svg"
   version="1.1"
   width="678"
   height="134"
   id="svg2">
  <defs
     id="defs4" />
  <metadata
     id="metadata7">
    <rdf:RDF>
      <cc:Work
         rdf:about="">
        <dc:format>image/svg+xml</dc:format>
        <dc:type
           rdf:resource="http://purl.org/dc/dcmitype/StillImage" />
        <dc:title></dc:title>
      </cc:Work>
    </rdf:RDF>
  </metadata>
  <g
     transform="translate(0,-918.36218)"
     id="layer1">
    <g
       transform="matrix(1.7336612,0,0,1.7336612,-698.62953,620.15339)"
       id="g3786">
      <g
         id="text2985"
         style="font-size:80.80619049px;font-style:normal;font-variant:normal;font-weight:normal;font-stretch:normal;line-height:125%;letter-spacing:0px;word-spacing:0px;fill:#c4beae;fill-opacity:1;stroke:none;font-family:Steelfish;-inkscape-font-specification:Steelfish">
        <path
           d="m 431.04992,224.74643 -2.34338,17.61575 7.19175,0 2.26257,-17.61575 8.56546,0 0,-7.03014 -7.43417,0 1.61612,-12.28254 8.08062,0 0,-7.03014 -7.11094,0 2.26257,-17.21171 -7.03014,0 -2.34338,17.21171 -8.08062,0 2.26258,-17.21171 -7.03014,0 -2.34338,17.21171 -8.48465,0 0,7.03014 7.51498,0 -1.61613,12.28254 -8.24223,0 0,7.03014 7.19175,0 -2.42418,17.61575 7.19175,0 2.34338,-17.61575 7.99981,0 m 2.6666,-19.31268 -1.53531,12.28254 -8.08062,0 1.61612,-12.28254 7.99981,0"
           id="path3082"
           style="font-weight:bold;fill:#c4beae;font-family:Adobe Gothic Std;-inkscape-font-specification:Adobe Gothic Std Bold" />
      </g>
      <g
         id="text2989"
         style="font-size:120.19217682px;font-style:normal;font-variant:normal;font-weight:normal;font-stretch:normal;text-align:start;line-height:75%;letter-spacing:0px;word-spacing:0px;writing-mode:lr-tb;text-anchor:start;fill:#020202;fill-opacity:1;stroke:none;font-family:Microsoft Yi Baiti;-inkscape-font-specification:Microsoft Yi Baiti">
        <path
           d="m 462.38308,203.62838 c 1.48674,-1.68234 2.93436,-3.05172 4.34288,-4.10814 1.44761,-1.05633 2.83655,-1.85839 4.16682,-2.40619 1.36936,-0.5477 2.66048,-0.91939 3.87338,-1.11506 1.25198,-0.19558 2.42573,-0.29339 3.52126,-0.29344 9.35085,5e-5 14.02629,5.51668 14.02633,16.5499 l 0,30.10673 -4.69501,0 0,-29.69592 c -3e-5,-2.11272 -0.19566,-3.93203 -0.58687,-5.45794 -0.35217,-1.56497 -0.9586,-2.83653 -1.81932,-3.81469 -0.82166,-1.01722 -1.91716,-1.76059 -3.2865,-2.23013 -1.33029,-0.50859 -2.97354,-0.7629 -4.92976,-0.76294 -2.58228,4e-5 -5.06672,0.76298 -7.45332,2.28881 -2.34752,1.52592 -4.73415,3.6778 -7.15989,6.45564 l 0,33.21717 -4.69501,0 0,-64.2629 4.69501,0 0,25.5291"
           id="path3085"
           style="line-height:75%;letter-spacing:-2.5px;fill:#020202;font-family:Microsoft Yi Baiti;-inkscape-font-specification:Microsoft Yi Baiti" />
        <path
           d="m 534.82713,236.49342 c -1.60416,1.40851 -3.16917,2.58226 -4.69501,3.52126 -1.52591,0.89988 -3.03222,1.62369 -4.51894,2.17144 -1.44766,0.50863 -2.89528,0.86075 -4.34288,1.05638 -1.44765,0.19562 -2.91484,0.29343 -4.40157,0.29343 -1.9954,0 -3.85384,-0.313 -5.57532,-0.939 -1.72152,-0.58687 -3.20827,-1.42806 -4.46026,-2.52356 -1.25201,-1.13463 -2.2497,-2.48444 -2.99307,-4.04945 -0.70425,-1.60412 -1.05638,-3.36474 -1.05637,-5.28188 -10e-6,-5.20362 2.21055,-9.25305 6.63169,-12.14833 4.46024,-2.89523 11.13106,-4.34285 20.01247,-4.34288 l 5.39926,0 c -4e-5,-1.99535 -0.11741,-3.83422 -0.35213,-5.51663 -0.23478,-1.68235 -0.78253,-3.12997 -1.64325,-4.34289 -0.86079,-1.25196 -2.13235,-2.23008 -3.81469,-2.93438 -1.68241,-0.7042 -3.97122,-1.05633 -6.86645,-1.05637 -4.26465,4e-5 -7.4729,0.66517 -9.62476,1.99538 -2.11277,1.33029 -3.36477,3.34523 -3.75601,6.04482 l -4.63632,0 c 0.46949,-4.30372 2.15187,-7.49241 5.04713,-9.56608 2.89524,-2.11271 7.19899,-3.16908 12.91127,-3.16913 3.1691,5e-5 5.84917,0.3913 8.0402,1.17375 2.23009,0.78255 4.02985,1.91717 5.39926,3.40388 1.40846,1.44767 2.42571,3.22786 3.05175,5.34057 0.62596,2.07367 0.93896,4.42117 0.93901,7.04251 l 0,29.69592 -4.69501,0 0,-5.86876 m 0,-17.54758 -7.1012,0 c -6.80778,2e-5 -11.89404,0.97814 -15.25877,2.93437 -3.32564,1.95628 -4.98846,4.75372 -4.98845,8.39233 -10e-6,2.69964 1.05637,4.81239 3.16913,6.33826 2.11274,1.48676 5.00799,2.23013 8.68577,2.23013 1.6041,0 3.14954,-0.23475 4.63631,-0.70425 1.52585,-0.50862 2.95392,-1.15419 4.2842,-1.93669 1.33022,-0.7825 2.54309,-1.64325 3.63863,-2.58226 1.13459,-0.97811 2.11272,-1.91711 2.93438,-2.817 l 0,-11.85489"
           id="path3087"
           style="line-height:75%;letter-spacing:-2.5px;fill:#020202;font-family:Microsoft Yi Baiti;-inkscape-font-specification:Microsoft Yi Baiti" />
        <path
           d="m 570.18062,243.53593 c -3.01265,0 -5.77096,-0.52818 -8.27495,-1.58456 -2.46489,-1.05638 -4.5972,-2.60181 -6.39695,-4.63632 -1.76063,-2.0345 -3.13001,-4.5385 -4.10813,-7.51201 -0.97813,-2.97349 -1.46719,-6.37737 -1.46719,-10.21164 0,-3.75598 0.4695,-7.12073 1.40851,-10.09427 0.97812,-2.97346 2.34749,-5.47747 4.10813,-7.51201 1.79974,-2.03446 3.93205,-3.5799 6.39694,-4.63632 2.50399,-1.09545 5.28186,-1.6432 8.33364,-1.64325 2.19098,5e-5 4.22548,0.29349 6.10351,0.88032 1.91709,0.58692 3.59947,1.44767 5.04713,2.58225 1.48672,1.13467 2.71916,2.54317 3.69732,4.22551 1.01721,1.68241 1.72146,3.59954 2.11275,5.75138 l -4.57763,0 c -0.19566,-1.40847 -0.6456,-2.66047 -1.34981,-3.75601 -0.66516,-1.09546 -1.54548,-2.0149 -2.64094,-2.75831 -1.09554,-0.74334 -2.3671,-1.29109 -3.8147,-1.64326 -1.40853,-0.3912 -2.9344,-0.58683 -4.57763,-0.58687 -2.3084,4e-5 -4.42115,0.41085 -6.33826,1.23244 -1.91714,0.78254 -3.56039,1.97585 -4.92976,3.57994 -1.36938,1.60416 -2.42576,3.6191 -3.16912,6.04482 -0.74339,2.38666 -1.11508,5.16454 -1.11507,8.33364 -10e-6,3.20827 0.37168,6.02527 1.11507,8.45101 0.74336,2.38664 1.79974,4.38202 3.16912,5.98614 1.36937,1.60413 3.01262,2.81701 4.92976,3.63863 1.91711,0.7825 4.02986,1.17375 6.33826,1.17375 1.52585,0 2.99304,-0.17606 4.40157,-0.52819 1.40847,-0.39125 2.66047,-0.939 3.75601,-1.64325 1.13459,-0.74337 2.07359,-1.64325 2.817,-2.69963 0.74334,-1.09549 1.21284,-2.36706 1.4085,-3.8147 l 4.57763,0 c -0.43041,2.19102 -1.15423,4.12771 -2.17144,5.81008 -0.97816,1.64325 -2.2106,3.03219 -3.69731,4.16681 -1.44767,1.13463 -3.13004,1.97582 -5.04714,2.52357 -1.87803,0.58688 -3.89297,0.88031 -6.04482,0.88031"
           id="path3089"
           style="line-height:75%;letter-spacing:-2.5px;fill:#020202;font-family:Microsoft Yi Baiti;-inkscape-font-specification:Microsoft Yi Baiti" />
        <path
           d="m 629.59602,242.36218 -5.86876,0 -16.5499,-25.64647 -7.45332,7.27726 0,18.36921 -4.69501,0 0,-64.2629 4.69501,0 0,39.96624 21.83178,-21.30359 6.10351,0 -17.25415,16.78465 19.19084,28.8156"
           id="path3091"
           style="line-height:75%;letter-spacing:-2.5px;fill:#020202;font-family:Microsoft Yi Baiti;-inkscape-font-specification:Microsoft Yi Baiti" />
      </g>
      <g
         id="text2993"
         style="font-size:83.35595703px;font-style:normal;font-variant:normal;font-weight:normal;font-stretch:normal;line-height:125%;letter-spacing:0px;word-spacing:0px;fill:#660210;fill-opacity:1;stroke:none;font-family:Steelfish;-inkscape-font-specification:Steelfish">
        <path
           d="m 648.44515,242.36218 0,-24.00651 c 1.25034,0.25006 2.75075,0.33342 4.50122,0.33342 9.58592,0 24.25658,-3.91775 24.25658,-21.50584 0,-5.91826 -2.33397,-11.08634 -6.16834,-14.33722 -4.08444,-3.50095 -10.16943,-5.08471 -18.25495,-5.08471 -7.08525,0 -12.58676,0.58349 -16.58784,1.33369 l 0,63.26717 12.25333,0 m 0,-54.51479 c 1.08362,-0.25007 2.8341,-0.50014 5.33478,-0.50014 6.83518,0 11.1697,3.58431 11.1697,10.4195 0,6.91853 -4.50123,11.25305 -12.16997,11.25305 -1.83383,0 -3.16753,-0.0834 -4.33451,-0.33342 l 0,-20.83899"
           id="path3094"
           style="font-weight:bold;fill:#660210;fill-opacity:1;font-family:Adobe Gothic Std;-inkscape-font-specification:Adobe Gothic Std Bold" />
        <path
           d="m 720.34878,178.26145 0,25.59028 -21.83926,0 0,-25.59028 -12.33668,0 0,64.10073 12.33668,0 0,-27.59082 21.83926,0 0,27.59082 12.33668,0 0,-64.10073 -12.33668,0"
           id="path3096"
           style="font-weight:bold;fill:#660210;fill-opacity:1;font-family:Adobe Gothic Std;-inkscape-font-specification:Adobe Gothic Std Bold" />
        <path
           d="m 788.11587,178.26145 -13.58702,0 -5.41814,12.5034 c -1.58376,3.66765 -2.66739,6.58512 -4.1678,10.5862 l -0.16671,0 c -1.5004,-3.5843 -2.75075,-6.83519 -4.41786,-10.50285 l -5.75157,-12.58675 -13.75373,0 16.00435,31.50855 -16.58784,32.59218 13.50367,0 5.25142,-12.33668 c 1.91719,-4.41786 3.4176,-7.91882 4.75129,-11.75319 l 0.25007,0 c 1.58376,3.83437 3.08417,7.25197 5.25142,11.66984 l 5.75156,12.42003 13.83709,0 -17.17132,-32.67553 16.42112,-31.4252"
           id="path3098"
           style="font-weight:bold;fill:#660210;fill-opacity:1;font-family:Adobe Gothic Std;-inkscape-font-specification:Adobe Gothic Std Bold" />
      </g>
    </g>
  </g>
</svg>
